# xmcd
#
# Track frame offsets: 
#        150
#        12082
#        26180
#        36070
#        45262
#        56615
#        66057
#        81150
#        90890
#        103635
#        118050
#        127210
#        139317
#        150522
#        162747
#        178417
#        189207
#        201290
#        213740
#        230232
#
# Disc length: 3219 seconds
#
# Revision: 0
# Processed by: cddbd v1.5.1PL0 Copyright (c) Steve Scherf et al.
# Submitted via: ExactAudioCopy v0.90b4
#
DISCID=1e0c9114
DTITLE=The Lewis Family - Bluegrass Favorites Volume 4
DYEAR=1995
DGENRE=Bluegrass
TTITLE0=Banjo Crossfire
TTITLE1=I'll Walk Them Golden Stairs
TTITLE2=March Around The Throne One Time For Me
TTITLE3=Lord I Wanna Thank You
TTITLE4=Ever Faithful Friend
TTITLE5=A Little At A Time
TTITLE6=The Whale Swallowed Jonah
TTITLE7=He Holds Me In His Hands
TTITLE8=Enjoyed, Not Endured
TTITLE9=Maybe When The Sun Comes Up
TTITLE10=Let Me Go
TTITLE11=Take All The Love
TTITLE12=Love, Sweet Love
TTITLE13=Dig A Little Deeper
TTITLE14=I'm A Crowd Pleaser
TTITLE15=He'll Come Walking On The Water
TTITLE16=I'm Gonna Praise The Lord
TTITLE17=Good And Plenty
TTITLE18=Flowers In The Wildwood
TTITLE19=Jesus Is The Light
EXTD=
EXTT0=
EXTT1=
EXTT2=
EXTT3=
EXTT4=
EXTT5=
EXTT6=
EXTT7=
EXTT8=
EXTT9=
EXTT10=
EXTT11=
EXTT12=
EXTT13=
EXTT14=
EXTT15=
EXTT16=
EXTT17=
EXTT18=
EXTT19=
PLAYORDER=
